<?xml version="1.0" encoding="UTF-8" standalone="no"?>
<!DOCTYPE svg PUBLIC "-//W3C//DTD SVG 1.1//EN"
 "http://www.w3.org/Graphics/SVG/1.1/DTD/svg11.dtd">
<!-- Generated by graphviz version 2.38.0 (20140413.2041)
 -->
<!-- Title: G Pages: 1 -->
<svg width="220pt" height="1359pt"
 viewBox="0.00 0.00 219.61 1359.00" xmlns="http://www.w3.org/2000/svg" xmlns:xlink="http://www.w3.org/1999/xlink">
<g id="graph0" class="graph" transform="scale(1 1) rotate(0) translate(4 1355)">
<title>G</title>
<polygon fill="white" stroke="none" points="-4,4 -4,-1355 215.61,-1355 215.61,4 -4,4"/>
<!-- 4667791512 -->
<g id="node1" class="node"><title>4667791512</title>
<polygon fill="none" stroke="black" points="42.7793,-1241.5 42.7793,-1277.5 168.831,-1277.5 168.831,-1241.5 42.7793,-1241.5"/>
<text text-anchor="middle" x="105.805" y="-1255.3" font-family="Times,serif" font-size="14.00">conv2d_1: Conv2D</text>
</g>
<!-- 4667792912 -->
<g id="node2" class="node"><title>4667792912</title>
<polygon fill="none" stroke="black" points="30.3447,-1168.5 30.3447,-1204.5 181.266,-1204.5 181.266,-1168.5 30.3447,-1168.5"/>
<text text-anchor="middle" x="105.805" y="-1182.3" font-family="Times,serif" font-size="14.00">activation_1: Activation</text>
</g>
<!-- 4667791512&#45;&gt;4667792912 -->
<g id="edge2" class="edge"><title>4667791512&#45;&gt;4667792912</title>
<path fill="none" stroke="black" d="M105.805,-1241.31C105.805,-1233.29 105.805,-1223.55 105.805,-1214.57"/>
<polygon fill="black" stroke="black" points="109.305,-1214.53 105.805,-1204.53 102.305,-1214.53 109.305,-1214.53"/>
</g>
<!-- 4667792240 -->
<g id="node3" class="node"><title>4667792240</title>
<polygon fill="none" stroke="black" points="42.7793,-1095.5 42.7793,-1131.5 168.831,-1131.5 168.831,-1095.5 42.7793,-1095.5"/>
<text text-anchor="middle" x="105.805" y="-1109.3" font-family="Times,serif" font-size="14.00">conv2d_2: Conv2D</text>
</g>
<!-- 4667792912&#45;&gt;4667792240 -->
<g id="edge3" class="edge"><title>4667792912&#45;&gt;4667792240</title>
<path fill="none" stroke="black" d="M105.805,-1168.31C105.805,-1160.29 105.805,-1150.55 105.805,-1141.57"/>
<polygon fill="black" stroke="black" points="109.305,-1141.53 105.805,-1131.53 102.305,-1141.53 109.305,-1141.53"/>
</g>
<!-- 4667965000 -->
<g id="node4" class="node"><title>4667965000</title>
<polygon fill="none" stroke="black" points="30.3447,-1022.5 30.3447,-1058.5 181.266,-1058.5 181.266,-1022.5 30.3447,-1022.5"/>
<text text-anchor="middle" x="105.805" y="-1036.3" font-family="Times,serif" font-size="14.00">activation_2: Activation</text>
</g>
<!-- 4667792240&#45;&gt;4667965000 -->
<g id="edge4" class="edge"><title>4667792240&#45;&gt;4667965000</title>
<path fill="none" stroke="black" d="M105.805,-1095.31C105.805,-1087.29 105.805,-1077.55 105.805,-1068.57"/>
<polygon fill="black" stroke="black" points="109.305,-1068.53 105.805,-1058.53 102.305,-1068.53 109.305,-1068.53"/>
</g>
<!-- 4667963656 -->
<g id="node5" class="node"><title>4667963656</title>
<polygon fill="none" stroke="black" points="0,-949.5 0,-985.5 211.61,-985.5 211.61,-949.5 0,-949.5"/>
<text text-anchor="middle" x="105.805" y="-963.3" font-family="Times,serif" font-size="14.00">max_pooling2d_1: MaxPooling2D</text>
</g>
<!-- 4667965000&#45;&gt;4667963656 -->
<g id="edge5" class="edge"><title>4667965000&#45;&gt;4667963656</title>
<path fill="none" stroke="black" d="M105.805,-1022.31C105.805,-1014.29 105.805,-1004.55 105.805,-995.569"/>
<polygon fill="black" stroke="black" points="109.305,-995.529 105.805,-985.529 102.305,-995.529 109.305,-995.529"/>
</g>
<!-- 4667965392 -->
<g id="node6" class="node"><title>4667965392</title>
<polygon fill="none" stroke="black" points="42.0034,-876.5 42.0034,-912.5 169.607,-912.5 169.607,-876.5 42.0034,-876.5"/>
<text text-anchor="middle" x="105.805" y="-890.3" font-family="Times,serif" font-size="14.00">dropout_1: Dropout</text>
</g>
<!-- 4667963656&#45;&gt;4667965392 -->
<g id="edge6" class="edge"><title>4667963656&#45;&gt;4667965392</title>
<path fill="none" stroke="black" d="M105.805,-949.313C105.805,-941.289 105.805,-931.547 105.805,-922.569"/>
<polygon fill="black" stroke="black" points="109.305,-922.529 105.805,-912.529 102.305,-922.529 109.305,-922.529"/>
</g>
<!-- 4668062352 -->
<g id="node7" class="node"><title>4668062352</title>
<polygon fill="none" stroke="black" points="42.7793,-803.5 42.7793,-839.5 168.831,-839.5 168.831,-803.5 42.7793,-803.5"/>
<text text-anchor="middle" x="105.805" y="-817.3" font-family="Times,serif" font-size="14.00">conv2d_3: Conv2D</text>
</g>
<!-- 4667965392&#45;&gt;4668062352 -->
<g id="edge7" class="edge"><title>4667965392&#45;&gt;4668062352</title>
<path fill="none" stroke="black" d="M105.805,-876.313C105.805,-868.289 105.805,-858.547 105.805,-849.569"/>
<polygon fill="black" stroke="black" points="109.305,-849.529 105.805,-839.529 102.305,-849.529 109.305,-849.529"/>
</g>
<!-- 4668142984 -->
<g id="node8" class="node"><title>4668142984</title>
<polygon fill="none" stroke="black" points="30.3447,-730.5 30.3447,-766.5 181.266,-766.5 181.266,-730.5 30.3447,-730.5"/>
<text text-anchor="middle" x="105.805" y="-744.3" font-family="Times,serif" font-size="14.00">activation_3: Activation</text>
</g>
<!-- 4668062352&#45;&gt;4668142984 -->
<g id="edge8" class="edge"><title>4668062352&#45;&gt;4668142984</title>
<path fill="none" stroke="black" d="M105.805,-803.313C105.805,-795.289 105.805,-785.547 105.805,-776.569"/>
<polygon fill="black" stroke="black" points="109.305,-776.529 105.805,-766.529 102.305,-776.529 109.305,-776.529"/>
</g>
<!-- 4668144944 -->
<g id="node9" class="node"><title>4668144944</title>
<polygon fill="none" stroke="black" points="42.7793,-657.5 42.7793,-693.5 168.831,-693.5 168.831,-657.5 42.7793,-657.5"/>
<text text-anchor="middle" x="105.805" y="-671.3" font-family="Times,serif" font-size="14.00">conv2d_4: Conv2D</text>
</g>
<!-- 4668142984&#45;&gt;4668144944 -->
<g id="edge9" class="edge"><title>4668142984&#45;&gt;4668144944</title>
<path fill="none" stroke="black" d="M105.805,-730.313C105.805,-722.289 105.805,-712.547 105.805,-703.569"/>
<polygon fill="black" stroke="black" points="109.305,-703.529 105.805,-693.529 102.305,-703.529 109.305,-703.529"/>
</g>
<!-- 4668300144 -->
<g id="node10" class="node"><title>4668300144</title>
<polygon fill="none" stroke="black" points="30.3447,-584.5 30.3447,-620.5 181.266,-620.5 181.266,-584.5 30.3447,-584.5"/>
<text text-anchor="middle" x="105.805" y="-598.3" font-family="Times,serif" font-size="14.00">activation_4: Activation</text>
</g>
<!-- 4668144944&#45;&gt;4668300144 -->
<g id="edge10" class="edge"><title>4668144944&#45;&gt;4668300144</title>
<path fill="none" stroke="black" d="M105.805,-657.313C105.805,-649.289 105.805,-639.547 105.805,-630.569"/>
<polygon fill="black" stroke="black" points="109.305,-630.529 105.805,-620.529 102.305,-630.529 109.305,-630.529"/>
</g>
<!-- 4668377968 -->
<g id="node11" class="node"><title>4668377968</title>
<polygon fill="none" stroke="black" points="0,-511.5 0,-547.5 211.61,-547.5 211.61,-511.5 0,-511.5"/>
<text text-anchor="middle" x="105.805" y="-525.3" font-family="Times,serif" font-size="14.00">max_pooling2d_2: MaxPooling2D</text>
</g>
<!-- 4668300144&#45;&gt;4668377968 -->
<g id="edge11" class="edge"><title>4668300144&#45;&gt;4668377968</title>
<path fill="none" stroke="black" d="M105.805,-584.313C105.805,-576.289 105.805,-566.547 105.805,-557.569"/>
<polygon fill="black" stroke="black" points="109.305,-557.529 105.805,-547.529 102.305,-557.529 109.305,-557.529"/>
</g>
<!-- 4668300312 -->
<g id="node12" class="node"><title>4668300312</title>
<polygon fill="none" stroke="black" points="42.0034,-438.5 42.0034,-474.5 169.607,-474.5 169.607,-438.5 42.0034,-438.5"/>
<text text-anchor="middle" x="105.805" y="-452.3" font-family="Times,serif" font-size="14.00">dropout_2: Dropout</text>
</g>
<!-- 4668377968&#45;&gt;4668300312 -->
<g id="edge12" class="edge"><title>4668377968&#45;&gt;4668300312</title>
<path fill="none" stroke="black" d="M105.805,-511.313C105.805,-503.289 105.805,-493.547 105.805,-484.569"/>
<polygon fill="black" stroke="black" points="109.305,-484.529 105.805,-474.529 102.305,-484.529 109.305,-484.529"/>
</g>
<!-- 4668300088 -->
<g id="node13" class="node"><title>4668300088</title>
<polygon fill="none" stroke="black" points="50.1724,-365.5 50.1724,-401.5 161.438,-401.5 161.438,-365.5 50.1724,-365.5"/>
<text text-anchor="middle" x="105.805" y="-379.3" font-family="Times,serif" font-size="14.00">flatten_1: Flatten</text>
</g>
<!-- 4668300312&#45;&gt;4668300088 -->
<g id="edge13" class="edge"><title>4668300312&#45;&gt;4668300088</title>
<path fill="none" stroke="black" d="M105.805,-438.313C105.805,-430.289 105.805,-420.547 105.805,-411.569"/>
<polygon fill="black" stroke="black" points="109.305,-411.529 105.805,-401.529 102.305,-411.529 109.305,-411.529"/>
</g>
<!-- 4668432792 -->
<g id="node14" class="node"><title>4668432792</title>
<polygon fill="none" stroke="black" points="53.6792,-292.5 53.6792,-328.5 157.931,-328.5 157.931,-292.5 53.6792,-292.5"/>
<text text-anchor="middle" x="105.805" y="-306.3" font-family="Times,serif" font-size="14.00">dense_1: Dense</text>
</g>
<!-- 4668300088&#45;&gt;4668432792 -->
<g id="edge14" class="edge"><title>4668300088&#45;&gt;4668432792</title>
<path fill="none" stroke="black" d="M105.805,-365.313C105.805,-357.289 105.805,-347.547 105.805,-338.569"/>
<polygon fill="black" stroke="black" points="109.305,-338.529 105.805,-328.529 102.305,-338.529 109.305,-338.529"/>
</g>
<!-- 4668610152 -->
<g id="node15" class="node"><title>4668610152</title>
<polygon fill="none" stroke="black" points="30.3447,-219.5 30.3447,-255.5 181.266,-255.5 181.266,-219.5 30.3447,-219.5"/>
<text text-anchor="middle" x="105.805" y="-233.3" font-family="Times,serif" font-size="14.00">activation_5: Activation</text>
</g>
<!-- 4668432792&#45;&gt;4668610152 -->
<g id="edge15" class="edge"><title>4668432792&#45;&gt;4668610152</title>
<path fill="none" stroke="black" d="M105.805,-292.313C105.805,-284.289 105.805,-274.547 105.805,-265.569"/>
<polygon fill="black" stroke="black" points="109.305,-265.529 105.805,-255.529 102.305,-265.529 109.305,-265.529"/>
</g>
<!-- 4668609368 -->
<g id="node16" class="node"><title>4668609368</title>
<polygon fill="none" stroke="black" points="42.0034,-146.5 42.0034,-182.5 169.607,-182.5 169.607,-146.5 42.0034,-146.5"/>
<text text-anchor="middle" x="105.805" y="-160.3" font-family="Times,serif" font-size="14.00">dropout_3: Dropout</text>
</g>
<!-- 4668610152&#45;&gt;4668609368 -->
<g id="edge16" class="edge"><title>4668610152&#45;&gt;4668609368</title>
<path fill="none" stroke="black" d="M105.805,-219.313C105.805,-211.289 105.805,-201.547 105.805,-192.569"/>
<polygon fill="black" stroke="black" points="109.305,-192.529 105.805,-182.529 102.305,-192.529 109.305,-192.529"/>
</g>
<!-- 4668611776 -->
<g id="node17" class="node"><title>4668611776</title>
<polygon fill="none" stroke="black" points="53.6792,-73.5 53.6792,-109.5 157.931,-109.5 157.931,-73.5 53.6792,-73.5"/>
<text text-anchor="middle" x="105.805" y="-87.3" font-family="Times,serif" font-size="14.00">dense_2: Dense</text>
</g>
<!-- 4668609368&#45;&gt;4668611776 -->
<g id="edge17" class="edge"><title>4668609368&#45;&gt;4668611776</title>
<path fill="none" stroke="black" d="M105.805,-146.313C105.805,-138.289 105.805,-128.547 105.805,-119.569"/>
<polygon fill="black" stroke="black" points="109.305,-119.529 105.805,-109.529 102.305,-119.529 109.305,-119.529"/>
</g>
<!-- 4668679056 -->
<g id="node18" class="node"><title>4668679056</title>
<polygon fill="none" stroke="black" points="30.3447,-0.5 30.3447,-36.5 181.266,-36.5 181.266,-0.5 30.3447,-0.5"/>
<text text-anchor="middle" x="105.805" y="-14.3" font-family="Times,serif" font-size="14.00">activation_6: Activation</text>
</g>
<!-- 4668611776&#45;&gt;4668679056 -->
<g id="edge18" class="edge"><title>4668611776&#45;&gt;4668679056</title>
<path fill="none" stroke="black" d="M105.805,-73.3129C105.805,-65.2895 105.805,-55.5475 105.805,-46.5691"/>
<polygon fill="black" stroke="black" points="109.305,-46.5288 105.805,-36.5288 102.305,-46.5289 109.305,-46.5288"/>
</g>
<!-- 4667791960 -->
<g id="node19" class="node"><title>4667791960</title>
<polygon fill="none" stroke="black" points="62.8052,-1314.5 62.8052,-1350.5 148.805,-1350.5 148.805,-1314.5 62.8052,-1314.5"/>
<text text-anchor="middle" x="105.805" y="-1328.3" font-family="Times,serif" font-size="14.00">4667791960</text>
</g>
<!-- 4667791960&#45;&gt;4667791512 -->
<g id="edge1" class="edge"><title>4667791960&#45;&gt;4667791512</title>
<path fill="none" stroke="black" d="M105.805,-1314.31C105.805,-1306.29 105.805,-1296.55 105.805,-1287.57"/>
<polygon fill="black" stroke="black" points="109.305,-1287.53 105.805,-1277.53 102.305,-1287.53 109.305,-1287.53"/>
</g>
</g>
</svg>
