<?xml version="1.0" encoding="UTF-8" standalone="no"?>
<!DOCTYPE svg PUBLIC "-//W3C//DTD SVG 1.1//EN"
 "http://www.w3.org/Graphics/SVG/1.1/DTD/svg11.dtd">
<!-- Generated by graphviz version 2.40.1 (20161225.0304)
 -->
<!-- Title: G Pages: 1 -->
<svg width="220pt" height="1359pt"
 viewBox="0.00 0.00 220.00 1359.00" xmlns="http://www.w3.org/2000/svg" xmlns:xlink="http://www.w3.org/1999/xlink">
<g id="graph0" class="graph" transform="scale(1 1) rotate(0) translate(4 1355)">
<title>G</title>
<polygon fill="#ffffff" stroke="transparent" points="-4,4 -4,-1355 216,-1355 216,4 -4,4"/>
<!-- 4449989464 -->
<g id="node1" class="node">
<title>4449989464</title>
<polygon fill="none" stroke="#000000" points="42.5,-1241.5 42.5,-1277.5 169.5,-1277.5 169.5,-1241.5 42.5,-1241.5"/>
<text text-anchor="middle" x="106" y="-1255.8" font-family="Times,serif" font-size="14.00" fill="#000000">conv2d_1: Conv2D</text>
</g>
<!-- 4396736864 -->
<g id="node2" class="node">
<title>4396736864</title>
<polygon fill="none" stroke="#000000" points="30,-1168.5 30,-1204.5 182,-1204.5 182,-1168.5 30,-1168.5"/>
<text text-anchor="middle" x="106" y="-1182.8" font-family="Times,serif" font-size="14.00" fill="#000000">activation_1: Activation</text>
</g>
<!-- 4449989464&#45;&gt;4396736864 -->
<g id="edge2" class="edge">
<title>4449989464&#45;&gt;4396736864</title>
<path fill="none" stroke="#000000" d="M106,-1241.4551C106,-1233.3828 106,-1223.6764 106,-1214.6817"/>
<polygon fill="#000000" stroke="#000000" points="109.5001,-1214.5903 106,-1204.5904 102.5001,-1214.5904 109.5001,-1214.5903"/>
</g>
<!-- 4449990304 -->
<g id="node3" class="node">
<title>4449990304</title>
<polygon fill="none" stroke="#000000" points="42.5,-1095.5 42.5,-1131.5 169.5,-1131.5 169.5,-1095.5 42.5,-1095.5"/>
<text text-anchor="middle" x="106" y="-1109.8" font-family="Times,serif" font-size="14.00" fill="#000000">conv2d_2: Conv2D</text>
</g>
<!-- 4396736864&#45;&gt;4449990304 -->
<g id="edge3" class="edge">
<title>4396736864&#45;&gt;4449990304</title>
<path fill="none" stroke="#000000" d="M106,-1168.4551C106,-1160.3828 106,-1150.6764 106,-1141.6817"/>
<polygon fill="#000000" stroke="#000000" points="109.5001,-1141.5903 106,-1131.5904 102.5001,-1141.5904 109.5001,-1141.5903"/>
</g>
<!-- 4450143424 -->
<g id="node4" class="node">
<title>4450143424</title>
<polygon fill="none" stroke="#000000" points="30,-1022.5 30,-1058.5 182,-1058.5 182,-1022.5 30,-1022.5"/>
<text text-anchor="middle" x="106" y="-1036.8" font-family="Times,serif" font-size="14.00" fill="#000000">activation_2: Activation</text>
</g>
<!-- 4449990304&#45;&gt;4450143424 -->
<g id="edge4" class="edge">
<title>4449990304&#45;&gt;4450143424</title>
<path fill="none" stroke="#000000" d="M106,-1095.4551C106,-1087.3828 106,-1077.6764 106,-1068.6817"/>
<polygon fill="#000000" stroke="#000000" points="109.5001,-1068.5903 106,-1058.5904 102.5001,-1068.5904 109.5001,-1068.5903"/>
</g>
<!-- 4450143480 -->
<g id="node5" class="node">
<title>4450143480</title>
<polygon fill="none" stroke="#000000" points="0,-949.5 0,-985.5 212,-985.5 212,-949.5 0,-949.5"/>
<text text-anchor="middle" x="106" y="-963.8" font-family="Times,serif" font-size="14.00" fill="#000000">max_pooling2d_1: MaxPooling2D</text>
</g>
<!-- 4450143424&#45;&gt;4450143480 -->
<g id="edge5" class="edge">
<title>4450143424&#45;&gt;4450143480</title>
<path fill="none" stroke="#000000" d="M106,-1022.4551C106,-1014.3828 106,-1004.6764 106,-995.6817"/>
<polygon fill="#000000" stroke="#000000" points="109.5001,-995.5903 106,-985.5904 102.5001,-995.5904 109.5001,-995.5903"/>
</g>
<!-- 4450214520 -->
<g id="node6" class="node">
<title>4450214520</title>
<polygon fill="none" stroke="#000000" points="42,-876.5 42,-912.5 170,-912.5 170,-876.5 42,-876.5"/>
<text text-anchor="middle" x="106" y="-890.8" font-family="Times,serif" font-size="14.00" fill="#000000">dropout_1: Dropout</text>
</g>
<!-- 4450143480&#45;&gt;4450214520 -->
<g id="edge6" class="edge">
<title>4450143480&#45;&gt;4450214520</title>
<path fill="none" stroke="#000000" d="M106,-949.4551C106,-941.3828 106,-931.6764 106,-922.6817"/>
<polygon fill="#000000" stroke="#000000" points="109.5001,-922.5903 106,-912.5904 102.5001,-922.5904 109.5001,-922.5903"/>
</g>
<!-- 4450215864 -->
<g id="node7" class="node">
<title>4450215864</title>
<polygon fill="none" stroke="#000000" points="42.5,-803.5 42.5,-839.5 169.5,-839.5 169.5,-803.5 42.5,-803.5"/>
<text text-anchor="middle" x="106" y="-817.8" font-family="Times,serif" font-size="14.00" fill="#000000">conv2d_3: Conv2D</text>
</g>
<!-- 4450214520&#45;&gt;4450215864 -->
<g id="edge7" class="edge">
<title>4450214520&#45;&gt;4450215864</title>
<path fill="none" stroke="#000000" d="M106,-876.4551C106,-868.3828 106,-858.6764 106,-849.6817"/>
<polygon fill="#000000" stroke="#000000" points="109.5001,-849.5903 106,-839.5904 102.5001,-849.5904 109.5001,-849.5903"/>
</g>
<!-- 4450401080 -->
<g id="node8" class="node">
<title>4450401080</title>
<polygon fill="none" stroke="#000000" points="30,-730.5 30,-766.5 182,-766.5 182,-730.5 30,-730.5"/>
<text text-anchor="middle" x="106" y="-744.8" font-family="Times,serif" font-size="14.00" fill="#000000">activation_3: Activation</text>
</g>
<!-- 4450215864&#45;&gt;4450401080 -->
<g id="edge8" class="edge">
<title>4450215864&#45;&gt;4450401080</title>
<path fill="none" stroke="#000000" d="M106,-803.4551C106,-795.3828 106,-785.6764 106,-776.6817"/>
<polygon fill="#000000" stroke="#000000" points="109.5001,-776.5903 106,-766.5904 102.5001,-776.5904 109.5001,-776.5903"/>
</g>
<!-- 4450401136 -->
<g id="node9" class="node">
<title>4450401136</title>
<polygon fill="none" stroke="#000000" points="42.5,-657.5 42.5,-693.5 169.5,-693.5 169.5,-657.5 42.5,-657.5"/>
<text text-anchor="middle" x="106" y="-671.8" font-family="Times,serif" font-size="14.00" fill="#000000">conv2d_4: Conv2D</text>
</g>
<!-- 4450401080&#45;&gt;4450401136 -->
<g id="edge9" class="edge">
<title>4450401080&#45;&gt;4450401136</title>
<path fill="none" stroke="#000000" d="M106,-730.4551C106,-722.3828 106,-712.6764 106,-703.6817"/>
<polygon fill="#000000" stroke="#000000" points="109.5001,-703.5903 106,-693.5904 102.5001,-703.5904 109.5001,-703.5903"/>
</g>
<!-- 4450508304 -->
<g id="node10" class="node">
<title>4450508304</title>
<polygon fill="none" stroke="#000000" points="30,-584.5 30,-620.5 182,-620.5 182,-584.5 30,-584.5"/>
<text text-anchor="middle" x="106" y="-598.8" font-family="Times,serif" font-size="14.00" fill="#000000">activation_4: Activation</text>
</g>
<!-- 4450401136&#45;&gt;4450508304 -->
<g id="edge10" class="edge">
<title>4450401136&#45;&gt;4450508304</title>
<path fill="none" stroke="#000000" d="M106,-657.4551C106,-649.3828 106,-639.6764 106,-630.6817"/>
<polygon fill="#000000" stroke="#000000" points="109.5001,-630.5903 106,-620.5904 102.5001,-630.5904 109.5001,-630.5903"/>
</g>
<!-- 4450508360 -->
<g id="node11" class="node">
<title>4450508360</title>
<polygon fill="none" stroke="#000000" points="0,-511.5 0,-547.5 212,-547.5 212,-511.5 0,-511.5"/>
<text text-anchor="middle" x="106" y="-525.8" font-family="Times,serif" font-size="14.00" fill="#000000">max_pooling2d_2: MaxPooling2D</text>
</g>
<!-- 4450508304&#45;&gt;4450508360 -->
<g id="edge11" class="edge">
<title>4450508304&#45;&gt;4450508360</title>
<path fill="none" stroke="#000000" d="M106,-584.4551C106,-576.3828 106,-566.6764 106,-557.6817"/>
<polygon fill="#000000" stroke="#000000" points="109.5001,-557.5903 106,-547.5904 102.5001,-557.5904 109.5001,-557.5903"/>
</g>
<!-- 4450546240 -->
<g id="node12" class="node">
<title>4450546240</title>
<polygon fill="none" stroke="#000000" points="42,-438.5 42,-474.5 170,-474.5 170,-438.5 42,-438.5"/>
<text text-anchor="middle" x="106" y="-452.8" font-family="Times,serif" font-size="14.00" fill="#000000">dropout_2: Dropout</text>
</g>
<!-- 4450508360&#45;&gt;4450546240 -->
<g id="edge12" class="edge">
<title>4450508360&#45;&gt;4450546240</title>
<path fill="none" stroke="#000000" d="M106,-511.4551C106,-503.3828 106,-493.6764 106,-484.6817"/>
<polygon fill="#000000" stroke="#000000" points="109.5001,-484.5903 106,-474.5904 102.5001,-484.5904 109.5001,-484.5903"/>
</g>
<!-- 4450547640 -->
<g id="node13" class="node">
<title>4450547640</title>
<polygon fill="none" stroke="#000000" points="50,-365.5 50,-401.5 162,-401.5 162,-365.5 50,-365.5"/>
<text text-anchor="middle" x="106" y="-379.8" font-family="Times,serif" font-size="14.00" fill="#000000">flatten_1: Flatten</text>
</g>
<!-- 4450546240&#45;&gt;4450547640 -->
<g id="edge13" class="edge">
<title>4450546240&#45;&gt;4450547640</title>
<path fill="none" stroke="#000000" d="M106,-438.4551C106,-430.3828 106,-420.6764 106,-411.6817"/>
<polygon fill="#000000" stroke="#000000" points="109.5001,-411.5903 106,-401.5904 102.5001,-411.5904 109.5001,-411.5903"/>
</g>
<!-- 4450601728 -->
<g id="node14" class="node">
<title>4450601728</title>
<polygon fill="none" stroke="#000000" points="53.5,-292.5 53.5,-328.5 158.5,-328.5 158.5,-292.5 53.5,-292.5"/>
<text text-anchor="middle" x="106" y="-306.8" font-family="Times,serif" font-size="14.00" fill="#000000">dense_1: Dense</text>
</g>
<!-- 4450547640&#45;&gt;4450601728 -->
<g id="edge14" class="edge">
<title>4450547640&#45;&gt;4450601728</title>
<path fill="none" stroke="#000000" d="M106,-365.4551C106,-357.3828 106,-347.6764 106,-338.6817"/>
<polygon fill="#000000" stroke="#000000" points="109.5001,-338.5903 106,-328.5904 102.5001,-338.5904 109.5001,-338.5903"/>
</g>
<!-- 4450769328 -->
<g id="node15" class="node">
<title>4450769328</title>
<polygon fill="none" stroke="#000000" points="30,-219.5 30,-255.5 182,-255.5 182,-219.5 30,-219.5"/>
<text text-anchor="middle" x="106" y="-233.8" font-family="Times,serif" font-size="14.00" fill="#000000">activation_5: Activation</text>
</g>
<!-- 4450601728&#45;&gt;4450769328 -->
<g id="edge15" class="edge">
<title>4450601728&#45;&gt;4450769328</title>
<path fill="none" stroke="#000000" d="M106,-292.4551C106,-284.3828 106,-274.6764 106,-265.6817"/>
<polygon fill="#000000" stroke="#000000" points="109.5001,-265.5903 106,-255.5904 102.5001,-265.5904 109.5001,-265.5903"/>
</g>
<!-- 4450769832 -->
<g id="node16" class="node">
<title>4450769832</title>
<polygon fill="none" stroke="#000000" points="42,-146.5 42,-182.5 170,-182.5 170,-146.5 42,-146.5"/>
<text text-anchor="middle" x="106" y="-160.8" font-family="Times,serif" font-size="14.00" fill="#000000">dropout_3: Dropout</text>
</g>
<!-- 4450769328&#45;&gt;4450769832 -->
<g id="edge16" class="edge">
<title>4450769328&#45;&gt;4450769832</title>
<path fill="none" stroke="#000000" d="M106,-219.4551C106,-211.3828 106,-201.6764 106,-192.6817"/>
<polygon fill="#000000" stroke="#000000" points="109.5001,-192.5903 106,-182.5904 102.5001,-192.5904 109.5001,-192.5903"/>
</g>
<!-- 4450769384 -->
<g id="node17" class="node">
<title>4450769384</title>
<polygon fill="none" stroke="#000000" points="53.5,-73.5 53.5,-109.5 158.5,-109.5 158.5,-73.5 53.5,-73.5"/>
<text text-anchor="middle" x="106" y="-87.8" font-family="Times,serif" font-size="14.00" fill="#000000">dense_2: Dense</text>
</g>
<!-- 4450769832&#45;&gt;4450769384 -->
<g id="edge17" class="edge">
<title>4450769832&#45;&gt;4450769384</title>
<path fill="none" stroke="#000000" d="M106,-146.4551C106,-138.3828 106,-128.6764 106,-119.6817"/>
<polygon fill="#000000" stroke="#000000" points="109.5001,-119.5903 106,-109.5904 102.5001,-119.5904 109.5001,-119.5903"/>
</g>
<!-- 4450877112 -->
<g id="node18" class="node">
<title>4450877112</title>
<polygon fill="none" stroke="#000000" points="30,-.5 30,-36.5 182,-36.5 182,-.5 30,-.5"/>
<text text-anchor="middle" x="106" y="-14.8" font-family="Times,serif" font-size="14.00" fill="#000000">activation_6: Activation</text>
</g>
<!-- 4450769384&#45;&gt;4450877112 -->
<g id="edge18" class="edge">
<title>4450769384&#45;&gt;4450877112</title>
<path fill="none" stroke="#000000" d="M106,-73.4551C106,-65.3828 106,-55.6764 106,-46.6817"/>
<polygon fill="#000000" stroke="#000000" points="109.5001,-46.5903 106,-36.5904 102.5001,-46.5904 109.5001,-46.5903"/>
</g>
<!-- 4449989912 -->
<g id="node19" class="node">
<title>4449989912</title>
<polygon fill="none" stroke="#000000" points="62.5,-1314.5 62.5,-1350.5 149.5,-1350.5 149.5,-1314.5 62.5,-1314.5"/>
<text text-anchor="middle" x="106" y="-1328.8" font-family="Times,serif" font-size="14.00" fill="#000000">4449989912</text>
</g>
<!-- 4449989912&#45;&gt;4449989464 -->
<g id="edge1" class="edge">
<title>4449989912&#45;&gt;4449989464</title>
<path fill="none" stroke="#000000" d="M106,-1314.4551C106,-1306.3828 106,-1296.6764 106,-1287.6817"/>
<polygon fill="#000000" stroke="#000000" points="109.5001,-1287.5903 106,-1277.5904 102.5001,-1287.5904 109.5001,-1287.5903"/>
</g>
</g>
</svg>
